<svg xmlns="http://www.w3.org/2000/svg" viewBox="0 0 128.24 30"><path fill-rule="evenodd" d="M9.8 17.85 4.16 5.45s-.04-.06-.07-.08a.202.202 0 0 0-.11-.03H.2s-.06 0-.09.02-.05.04-.07.06c-.02.03-.03.06-.03.09s0 .06.02.09l8.2 17.89s.04.06.07.08c.03.02.07.03.11.03h3.22s.07 0 .11-.03c.03-.02.06-.05.07-.08L20.09 5.6s.02-.06.02-.09-.01-.06-.03-.09a.134.134 0 0 0-.07-.06c-.03-.02-.06-.02-.09-.02h-3.79s-.07 0-.11.03c-.03.02-.06.05-.07.08l-5.73 12.4s-.05.07-.09.1c-.04.02-.08.03-.13.03-.04 0-.09-.01-.12-.04a.159.159 0 0 1-.08-.1ZM73.04 5.11A9.692 9.692 0 0 0 67 8.23a9.226 9.226 0 0 0-2.41 6.24c0 2.3.86 4.52 2.42 6.24a9.765 9.765 0 0 0 7.24 3.19c.4 0 .8-.02 1.19-.07 2.33-.29 4.48-1.39 6.04-3.12a9.284 9.284 0 0 0 2.42-6.24c0-2.3-.86-4.52-2.42-6.24a9.765 9.765 0 0 0-7.23-3.19c-.4 0-.8.02-1.2.07Zm2.23 3.76c1.34.24 2.56.93 3.43 1.95a5.62 5.62 0 0 1 1.35 3.65c0 1.35-.49 2.65-1.38 3.67a5.813 5.813 0 0 1-3.48 1.93c-.32.05-.64.08-.96.08-.32 0-.64-.03-.96-.08h-.08a5.93 5.93 0 0 1-3.43-1.97 5.613 5.613 0 0 1-1.35-3.64c0-1.35.49-2.65 1.38-3.67a5.878 5.878 0 0 1 5.4-1.94h.08Zm19.95-3.76c-2.33.29-4.48 1.39-6.03 3.12-1.56 1.72-2.41 3.94-2.41 6.24s.86 4.52 2.41 6.24a9.766 9.766 0 0 0 6.03 3.12c1.36.17 2.74.05 4.04-.35a9.732 9.732 0 0 0 3.54-1.94 9.296 9.296 0 0 0 2.41-3.19c.56-1.22.85-2.54.85-3.88V.19c0-.05-.02-.1-.06-.13a.197.197 0 0 0-.14-.06h-3.44c-.05 0-.1.02-.14.06-.04.04-.06.08-.06.13v14.28a5.623 5.623 0 0 1-1.7 4.03c-.54.53-1.18.95-1.89 1.23-.71.29-1.46.43-2.23.43-.32 0-.64-.03-.96-.08h-.08a5.908 5.908 0 0 1-3.44-1.98 5.629 5.629 0 0 1-1.34-3.67c0-1.34.5-2.63 1.39-3.65.89-1.02 2.12-1.7 3.47-1.92.32-.05.64-.08.96-.08.32 0 .64.03.96.08h.08c.9.17 1.75.53 2.48 1.08.03.02.06.04.1.04.04 0 .07 0 .11-.02a.27.27 0 0 0 .08-.07c.02-.03.03-.06.03-.1V5.94s0-.07-.03-.11a.16.16 0 0 0-.09-.07 9.87 9.87 0 0 0-4.9-.65Zm-66.53 0c-2.33.29-4.48 1.39-6.04 3.12a9.274 9.274 0 0 0-2.41 6.24c0 2.3.86 4.52 2.42 6.24a9.765 9.765 0 0 0 7.23 3.19c.4 0 .8-.02 1.2-.07.86-.1 1.71-.32 2.51-.65a.16.16 0 0 0 .09-.07c.02-.03.03-.07.03-.11v-3.85s0-.07-.03-.1c-.02-.03-.05-.05-.08-.07-.03-.02-.07-.02-.1-.02-.04 0-.07.02-.1.04-.75.56-1.63.93-2.56 1.08-.32.05-.64.08-.96.08-.32 0-.64-.03-.96-.08h-.08a5.93 5.93 0 0 1-3.43-1.97 5.613 5.613 0 0 1-1.35-3.64c0-1.35.49-2.65 1.38-3.67a5.878 5.878 0 0 1 5.4-1.94h.08c1.34.25 2.56.94 3.43 1.96a5.62 5.62 0 0 1 1.35 3.65v8.94c0 .05.02.1.06.13.04.04.09.06.14.06h3.44c.05 0 .1-.02.14-.06.04-.04.06-.08.06-.13v-8.94c0-2.3-.86-4.52-2.42-6.24a9.765 9.765 0 0 0-7.24-3.19c-.4 0-.8.02-1.19.07Zm22.17 0a9.692 9.692 0 0 0-6.04 3.12 9.284 9.284 0 0 0-2.42 6.24c0 2.3.86 4.52 2.42 6.24a9.765 9.765 0 0 0 7.24 3.19c.4 0 .8-.02 1.19-.07 2.33-.29 4.48-1.39 6.04-3.12a9.284 9.284 0 0 0 2.42-6.24c0-2.3-.86-4.52-2.41-6.24a9.766 9.766 0 0 0-6.03-3.12c-.4-.05-.79-.07-1.19-.07-.4 0-.8.02-1.2.07Zm9.39-2.92c-.63 0-1.24.25-1.69.68-.45.44-.7 1.03-.7 1.65s.25 1.21.7 1.65c.45.44 1.05.68 1.69.68.63 0 1.24-.25 1.69-.69.45-.44.7-1.03.7-1.65a2.3 2.3 0 0 0-.7-1.65c-.45-.44-1.05-.68-1.69-.68ZM45.37 24.15c-.16-.12-.33-.24-.48-.36a.18.18 0 0 0-.14-.04c-.05 0-.1.03-.13.07l-2.16 2.62s-.05.09-.04.14.03.1.07.13A15.404 15.404 0 0 0 52.07 30a15.475 15.475 0 0 0 9.58-3.29.21.21 0 0 0 .07-.13c0-.05 0-.1-.04-.14l-2.16-2.62s-.08-.06-.13-.07c-.05 0-.1 0-.14.04l-.48.36c-1.56 1.1-3.37 1.79-5.27 2.02a11.163 11.163 0 0 1-2.84 0 11.5 11.5 0 0 1-5.27-2.02ZM53.1 8.87a5.9 5.9 0 0 1 3.43 1.95 5.62 5.62 0 0 1 1.35 3.65c0 1.35-.49 2.65-1.38 3.67a5.813 5.813 0 0 1-3.48 1.93c-.32.05-.64.08-.96.08-.32 0-.64-.03-.96-.08h-.08a5.93 5.93 0 0 1-3.43-1.97 5.613 5.613 0 0 1-1.35-3.64c0-1.35.49-2.65 1.38-3.68a5.813 5.813 0 0 1 3.48-1.93c.32-.05.64-.08.96-.08.32 0 .64.03.96.08h.08v.01Zm64.29-3.76c-2.33.29-4.48 1.39-6.03 3.12-1.56 1.72-2.41 3.94-2.41 6.24s.86 4.52 2.41 6.24a9.766 9.766 0 0 0 6.03 3.12c1.66.2 3.35-.02 4.9-.65a.16.16 0 0 0 .09-.07c.02-.03.03-.07.03-.11v-3.85s0-.07-.03-.1c-.02-.03-.05-.05-.08-.07-.03-.02-.07-.02-.11-.02-.04 0-.07.02-.1.04a5.908 5.908 0 0 1-4.48 1.07h-.08c-1.35-.25-2.57-.95-3.44-1.98s-1.35-2.33-1.34-3.67c0-1.34.5-2.63 1.39-3.65.89-1.02 2.12-1.7 3.47-1.92.32-.05.64-.08.96-.08.32 0 .64.03.96.08h.08c1.34.25 2.56.94 3.43 1.96a5.567 5.567 0 0 1 1.35 3.65v8.94s.02.1.06.13c.04.04.09.06.14.06h3.44c.05 0 .1-.02.14-.06.04-.04.06-.08.06-.13v-8.94c0-2.3-.86-4.52-2.41-6.24a9.765 9.765 0 0 0-6.04-3.12c-.79-.1-1.6-.1-2.39 0Z"/></svg>