<svg xmlns="http://www.w3.org/2000/svg" viewBox="0 0 60 58.99"><path d="M51.65 25.66c.96-.74 2.13-1.17 3.35-1.16.27 0 .52-.11.71-.29s.29-.44.29-.71-.11-.52-.29-.71-.44-.29-.71-.29c-.72 0-1.44-.14-2.11-.42-.67-.28-1.27-.68-1.79-1.19s-.92-1.12-1.19-1.79c-.28-.67-.42-1.38-.42-2.11 0-.27-.11-.52-.29-.71s-.44-.29-.71-.29-.52.11-.71.29-.29.44-.29.71c0 .46-.08.91-.19 1.36-1.59-1.39-3.48-2.4-5.53-2.93-2.57-.66-5.28-.56-7.78.3-6.32 2.19-7.61-1.21-13.61-.68-2.46.23-4.81 1.12-6.8 2.59a13.61 13.61 0 0 0-5.41 12.94c.36 2.44 1.37 4.75 2.93 6.66 3.14 3.77 3.33 7.31 5.43 17.62.18.86.59 1.67 1.17 2.33.58.67 1.32 1.17 2.15 1.47a5.216 5.216 0 0 0 4.99-.81c1.87-1.45 1.82-2.75 3.65-10.26.06-.36.24-.68.52-.91a1.518 1.518 0 0 1 1.96 0c.27.23.46.56.52.91l1.81 7.41c.21.85.62 1.64 1.22 2.29.59.65 1.34 1.14 2.17 1.42.83.28 1.72.35 2.59.2s1.68-.52 2.36-1.07c1.93-1.55 1.8-2.87 3.93-13.3.5-2.68 1.65-5.19 3.35-7.31 1.39-1.68 2.35-3.67 2.8-5.8.41-1.91.37-3.87-.05-5.77Zm-1.96-3.35c2 2.02 2.06.39 0 2.39-.14.14-.26.3-.39.45-.07.08-.14.15-.2.23-.22.28-.42.57-.6.88a7.458 7.458 0 0 0-2.76-2.76c.1-.06.18-.13.28-.18.18-.12.37-.23.54-.36.17-.13.33-.28.49-.43.08-.07.17-.14.24-.21l.02-.02c.03-.03.06-.06.08-.09 1.89-1.95.32-1.87 2.28.11ZM47.36 36a17.88 17.88 0 0 0-3.77 8.1c-2.23 11.02-2.04 11.14-3.23 12.14-.42.34-.92.57-1.45.67a3.178 3.178 0 0 1-2.93-.98c-.37-.4-.62-.88-.75-1.41l-1.81-7.41v.04c-.19-.76-.64-1.44-1.26-1.93a3.505 3.505 0 0 0-4.35.03c-.62.49-1.05 1.18-1.23 1.94l-1.81 7.41c-.17.7-.58 1.33-1.16 1.77-.57.44-1.28.68-2.01.66a3.189 3.189 0 0 1-3.07-2.54c-2.04-9.81-2.29-14.13-5.89-18.5-7.4-9 1.83-22.16 12.71-18.38a14.25 14.25 0 0 0 9.3 0c2.02-.69 4.18-.81 6.26-.34 2.07.46 3.98 1.49 5.51 2.97-.15.2-.3.4-.47.58-.05.05-.1.1-.16.15-.22.21-.44.4-.69.57-.02.01-.03.03-.05.04-.26.18-.55.32-.84.45-.06.03-.11.05-.17.08-.29.11-.59.21-.89.27l-.17.03c-.32.06-.64.09-.97.09-.27 0-.52.11-.71.29s-.29.44-.29.71.11.52.29.71a.995.995 0 0 0 .7.3c.36 0 .73.04 1.08.11 1.06.21 2.04.73 2.81 1.51a5.503 5.503 0 0 1 1.61 3.89 1.016 1.016 0 0 0 .61.93c.12.05.25.08.38.08.27 0 .52-.11.71-.29a.99.99 0 0 0 .29-.71v-.01c0-.29.04-.58.09-.87.03-.19.08-.37.13-.56.03-.11.07-.23.11-.34.05-.15.11-.3.18-.44.22 2.98-.72 5.93-2.64 8.22Zm-7.42-16.22c.12.2.16.44.12.68-.04.23-.16.44-.34.6-2.97 1.68-6.31 2.6-9.72 2.67-3.42-.06-6.78-.98-9.76-2.67a.985.985 0 0 1-.34-.6c-.04-.23 0-.47.12-.68.12-.2.31-.36.53-.44.22-.08.47-.07.69 0A18.95 18.95 0 0 0 30 21.71c3.05-.08 6.05-.89 8.72-2.37.22-.08.46-.09.69 0 .22.08.41.23.53.44ZM4 31H1c-.27 0-.52-.11-.71-.29C.1 30.52 0 30.27 0 30s.11-.52.29-.71A.99.99 0 0 1 1 29h3c.27 0 .52.11.71.29.19.19.29.44.29.71s-.11.52-.29.71A.99.99 0 0 1 4 31Zm56-1c0 .27-.11.52-.29.71s-.44.29-.71.29h-3c-.27 0-.52-.11-.71-.29S55 30.27 55 30s.11-.52.29-.71.44-.29.71-.29h3c.27 0 .52.11.71.29s.29.44.29.71ZM29.29 4.71A.99.99 0 0 1 29 4V1c0-.27.11-.52.29-.71.19-.19.44-.29.71-.29s.52.11.71.29c.19.19.29.44.29.71v3c0 .27-.11.52-.29.71-.19.19-.44.29-.71.29s-.52-.11-.71-.29ZM8.37 42.5A.998.998 0 0 1 8 43.87c-2.87 1.64-2.76 1.63-3.11 1.63-.22 0-.44-.07-.61-.2a.965.965 0 0 1-.36-.54c-.06-.21-.04-.44.04-.65.09-.2.24-.37.43-.48L7 42.13a.998.998 0 0 1 1.37.37Zm43.18-25.24c-.06-.21-.04-.44.04-.65.09-.2.24-.37.43-.48l2.59-1.5a.998.998 0 0 1 1.37.37.998.998 0 0 1-.37 1.37C52.76 18 52.87 18 52.52 18c-.22 0-.44-.07-.61-.2a.965.965 0 0 1-.36-.54ZM14.63 5.39A.998.998 0 0 1 15 4.02a.998.998 0 0 1 1.37.37L17.87 7c.08.15.13.32.12.5 0 .17-.05.34-.14.49-.09.15-.21.27-.36.36-.15.09-.32.13-.49.13-.75 0-.81-.41-2.37-3.09Zm27.51 2.6A.958.958 0 0 1 42 7.5c0-.17.04-.34.12-.5l1.5-2.59a.998.998 0 0 1 1.37-.37.998.998 0 0 1 .37 1.37c-1.56 2.68-1.62 3.07-2.37 3.07-.17 0-.34-.05-.49-.13-.15-.09-.27-.21-.36-.36ZM3.92 15.76a1.007 1.007 0 0 1 .71-1.23c.26-.07.53-.03.76.1L8 16.13c.19.11.35.28.43.49.09.21.1.44.04.65s-.19.4-.37.54c-.18.13-.4.2-.62.2-.36 0-.24 0-3.09-1.63a.998.998 0 0 1-.47-.61Zm52.12 28.35c.09.2.1.43.04.65-.06.21-.18.4-.36.54-.18.13-.39.21-.61.2-.35 0-.24 0-3.09-1.63a.998.998 0 0 1-.37-1.37.998.998 0 0 1 1.37-.37l2.59 1.5c.19.11.34.28.43.48Z"/></svg>