<svg xmlns="http://www.w3.org/2000/svg" viewBox="0 0 60 59.98"><path d="M43.52 6.45c.14.24.19.52.14.8-.05.27-.2.52-.42.69a28.044 28.044 0 0 1-13.23 3.62c-4.66-.08-9.22-1.33-13.27-3.62a1.14 1.14 0 0 1-.42-.69c-.05-.27 0-.56.14-.8s.36-.42.63-.51c.26-.09.55-.08.81.03a26.11 26.11 0 0 0 12.12 3.28c4.23-.09 8.38-1.22 12.07-3.28.26-.11.54-.12.81-.03.26.09.49.27.63.51Zm15.76 16.94c-.07.24-.22.45-.41.6-.2.15-.44.23-.69.23h-.64c-1.1 7.82-5.98 8.05-7.93 17.56-2.74 13.38-2.53 14.77-4.93 16.72-.85.7-1.86 1.17-2.94 1.37-1.08.2-2.19.12-3.23-.22a6.571 6.571 0 0 1-2.72-1.76 6.508 6.508 0 0 1-1.52-2.86l-2.3-9.34c-.11-.44-.36-.83-.72-1.11a2.036 2.036 0 0 0-2.5 0c-.36.28-.61.67-.72 1.11-2.3 9.53-2.3 11.08-4.61 12.89-.87.67-1.89 1.12-2.97 1.29-1.08.17-2.19.06-3.22-.31a6.59 6.59 0 0 1-2.67-1.83 6.474 6.474 0 0 1-1.45-2.9c-2.63-12.82-3-17.53-6.91-22.29a16.89 16.89 0 0 1-3.7-8.29h-.63a1.159 1.159 0 0 1-1.15-.83C-3.31 9.37 10.51-3.84 24.47 1.03c3.59 1.25 7.49 1.25 11.08 0 13.92-4.86 27.8 8.29 23.72 22.36Zm-4.12.83H40.98c-.17 0-.35-.03-.52-.05-.08-.01-.16 0-.24-.02a3.89 3.89 0 0 1-1.99-1.07 3.89 3.89 0 0 1-1.14-2.75c0-.78-.32-1.53-.87-2.09a3.06 3.06 0 0 0-1.51-.81c-.06-.01-.12 0-.18-.02-.13-.02-.26-.04-.4-.04H25.9c-.78 0-1.53.31-2.09.86-.55.55-.87 1.3-.87 2.09a3.89 3.89 0 0 1-3.89 3.89H4.89c.44 2.51 1.52 4.86 3.15 6.82 4.54 5.52 4.88 11.09 7.4 23.29.15.69.47 1.33.93 1.86.46.53 1.05.94 1.72 1.18.66.24 1.37.31 2.07.2.7-.11 1.35-.4 1.91-.83 1.5-1.15 1.31-1.62 3.76-11.62.23-.94.77-1.77 1.53-2.37.76-.6 1.7-.92 2.67-.92s1.91.32 2.67.92c.76.6 1.3 1.43 1.53 2.37h.05l2.3 9.34c.16.68.49 1.32.96 1.84a4.15 4.15 0 0 0 3.8 1.32c.69-.12 1.34-.41 1.89-.85 1.5-1.32 1.19-1.44 4.09-15.45 2.03-9.78 6.65-10.08 7.87-17.1ZM36.32 3.2a19.04 19.04 0 0 1-12.6 0 16.17 16.17 0 0 0-8.42-.54c-2.8.57-5.41 1.87-7.54 3.78a16.144 16.144 0 0 0-5.01 15.49h1.37c1.6-.05 5.3 0 14.36 0 .38-.01.66-.03.87-.06.29-.06.57-.17.79-.38l.02-.02c.16-.15.28-.33.36-.53.07-.18.11-.38.12-.58v-.04c0-.15.03-.3.05-.45.02-.19.02-.38.06-.57.03-.15.09-.28.13-.43.05-.19.1-.37.17-.55.05-.13.13-.25.2-.37.09-.18.17-.36.29-.53.08-.12.18-.21.27-.32.13-.16.24-.33.39-.47.1-.1.22-.18.33-.27.15-.13.3-.27.47-.38.14-.09.29-.15.43-.23.16-.09.31-.18.48-.25.16-.07.34-.1.51-.16.16-.05.31-.11.47-.14.28-.06.56-.07.85-.08.06 0 .12-.02.18-.02h.01c4.6 0 7.17-.17 8.91.07.16.02.32.04.47.08 1.05.21 1.79.62 2.56 1.39a5.26 5.26 0 0 1 1.54 3.72c0 .42.17.82.46 1.12.3.3.7.47 1.12.47h16.3C60.06 9.74 48.07-.89 36.32 3.2Z"/></svg>