<svg xmlns="http://www.w3.org/2000/svg" viewBox="0 0 44.01 60"><path d="M43.72 41.29a.99.99 0 0 0-.71-.29c-5.47 0-8.41-.08-10.04-.06.17-1.24 0-2.5-.48-3.66a7.014 7.014 0 0 0-5.84-4.27c-2.95-.23-3.62 1.35-6.36.35-1.44-.49-3.01-.5-4.45-.02a7.016 7.016 0 0 0-4.81 6.95c0 .22.05.43.08.64C9.5 40.91 6.55 41 .99 41c-.27 0-.52.11-.71.29s-.29.44-.29.71c0 4.78 1.9 9.36 5.27 12.73C8.64 58.11 13.22 60 17.99 60h8c4.78 0 9.36-1.9 12.73-5.27 3.38-3.38 5.27-7.96 5.27-12.73 0-.27-.11-.52-.29-.71Zm-29.83-4.16c.62-.9 1.51-1.57 2.54-1.91 1.03-.34 2.15-.34 3.18.01 3.32 1.17 4.59-.43 6.84-.24.77.06 1.51.3 2.17.69.66.39 1.22.94 1.64 1.58.42.65.68 1.38.77 2.15.08.69 0 1.39-.2 2.05-.18.33-.27.86-.94 1.7-.35.43-.65.9-.91 1.4-.28.5-.54 1.11-.77 1.92-.89 2.87-.92 5.89-1.68 6.36-.14.09-.3.14-.47.16-.17.01-.33-.02-.48-.08s-.28-.17-.39-.3c-.1-.13-.17-.29-.2-.45l-.83-3.45c-.1-.42-.33-.8-.65-1.1-.05-.04-.09-.09-.14-.13-.38-.31-.86-.49-1.36-.5-.5 0-.98.15-1.37.45-.39.3-.67.73-.8 1.2l-.86 3.52c-.05.22-.17.42-.35.56-.18.14-.4.22-.62.22a.998.998 0 0 1-.97-.78c-.63-3.18-.93-5.23-1.65-6.92-.1-.23-.21-.46-.33-.68-.06-.1-.11-.21-.17-.31-.11-.18-.22-.36-.35-.53l-.18-.24c-.08-.1-.14-.21-.23-.31a5.039 5.039 0 0 1-1.14-2.97c-.05-1.09.26-2.16.88-3.06Zm23.1 16.54c-2.97 2.79-6.9 4.34-10.98 4.33h-8c-4.08 0-8-1.54-10.98-4.33A16.062 16.062 0 0 1 2 42.99h9.73s.03.05.04.08c.24.48.51.95.86 1.37 1.38 1.66 1.49 3.33 2.49 8.16.14.67.5 1.26 1.03 1.7.2.16.42.29.65.4 0 0 .02.01.03.02h.03c.21.09.43.17.66.21h.03c.15.03.31.04.47.05h.1c.04 0 .08.01.13 0 .06 0 .11-.02.17-.03.09-.01.18-.03.27-.05.32-.07.64-.16.93-.33 1.43-.84 1.43-2.02 2.26-5.4a.21.21 0 0 1 .08-.11c.03-.02.07-.03.11-.04.04 0 .08.01.11.04.04.03.06.06.08.11l.27 1.09c.19.89.35 1.66.57 2.33l.02.1c.08.35.24.67.43.97v.01c.08.12.18.24.28.35.27.32.62.56 1.05.72.09.04.17.07.26.1.05.01.08.04.13.05.04.01.09 0 .13.02.11.02.22.04.33.05.06 0 .13.01.19.02h.09c.11 0 .19-.02.29-.03h.16c.01 0 .03 0 .04-.01.87-.12 1.46-.53 1.87-1.15.02-.03.05-.05.07-.09.23-.33.39-.71.47-1.1 0-.03 0-.05.02-.08.31-1 .47-2.21.69-3.44.08-.41.16-.77.23-1.12.3-1.28.74-2.53 1.58-3.53.36-.44.66-.93.9-1.44h9.66c-.25 4.07-2.05 7.89-5.03 10.68ZM11.34 23.49A18.049 18.049 0 0 0 5 32.07c-2 5.71 6 8.62 6 5.92 0-2.55.89-5.02 2.51-6.99a10.94 10.94 0 0 1 5.99-3.71 5 5 0 0 0 1.99.67c1.07.11 2.14-.12 3.07-.67 2.41.57 4.55 1.94 6.08 3.88 1.53 1.94 2.37 4.34 2.37 6.82 0 2.68 8-.17 6-5.92-.98-2.83-2.66-5.36-4.86-7.38-.46-.42-.94-.8-1.43-1.17 1.95-1.44 4.84-4.43 6.3-8.49l3.36-9.32c.19-.53.27-1.09.24-1.65-.03-.56-.17-1.11-.41-1.62-.24-.51-.58-.96-1-1.34-.42-.38-.91-.67-1.44-.85s-1.09-.27-1.65-.24-1.11.17-1.62.41c-.51.24-.96.58-1.34 1-.38.42-.67.91-.85 1.44l-3.92 11.19a8.814 8.814 0 0 1-2.14 3.39 8.83 8.83 0 0 1-2.88 1.87c-.17-.15-.32-.31-.5-.44a5.05 5.05 0 0 0-2.07-.83c-.74-.12-1.51-.06-2.23.16s-1.38.6-1.94 1.11a8.733 8.733 0 0 1-3.07-2.09 8.847 8.847 0 0 1-1.93-3.17L9.71 2.86C9.33 1.79 8.54.91 7.52.42S5.32-.13 4.25.25C3.18.63 2.3 1.42 1.81 2.44s-.55 2.2-.17 3.27c3.24 8.87 4.3 13.9 9.72 17.77Zm.05 7a12.983 12.983 0 0 0-2.33 6.37c-.42-.12-.8-.33-1.14-.6s-.61-.62-.82-1c-.2-.38-.33-.8-.36-1.24-.04-.43.01-.87.15-1.28 1.16-3.3 3.36-6.13 6.26-8.07.18.1.37.18.55.28.23.12.46.23.69.34.27.13.54.25.82.36.32.13.64.25.97.36.15.05.29.12.44.16-2.09.96-3.89 2.45-5.22 4.33Zm20.87-15.78 3.95-11.23c.14-.39.39-.73.71-.99a2.278 2.278 0 0 1 2.33-.33c.38.16.71.42.96.76.92 1.31.51 1.4-3.08 11.4a16.086 16.086 0 0 1-6.26 8c-.03-.02-.06-.03-.08-.04-.53-.3-1.08-.57-1.64-.81-.08-.03-.16-.07-.24-.1-.55-.23-1.11-.43-1.69-.61-.04-.01-.08-.03-.12-.04a10.73 10.73 0 0 0 5.16-6.01ZM3.54 3.23c.13-.28.31-.54.54-.75.23-.21.5-.37.79-.48.29-.1.6-.15.91-.13a2.249 2.249 0 0 1 1.61.82c.2.24.35.52.44.81l3.92 11.19c.54 1.57 1.44 3 2.63 4.16 1.19 1.17 2.63 2.04 4.21 2.56.19.06.4.07.6 0 .19-.06.37-.17.5-.33.28-.35.64-.63 1.04-.82.4-.19.85-.29 1.29-.29s.89.1 1.29.29c.4.19.76.47 1.04.82.48.59.42 1.11 1.11 1.26.39.09.75.18 1.08.28.2.06.4.12.59.19.13.04.27.09.39.13.17.06.34.13.51.2 1.11.46 1.82.91 2.31 1.15.83.5 1.61 1.07 2.34 1.71 2.05 1.81 3.61 4.13 4.51 6.71.14.41.19.85.15 1.28-.04.43-.16.85-.36 1.24-.2.38-.48.72-.82 1-.34.27-.72.48-1.14.6-.27-3.05-1.62-5.91-3.8-8.06-1.62-1.62-6.14-4.33-7.45-3.37-.59.42-1.31.62-2.03.55-.5-.05-.97-.22-1.38-.5-.03-.02-.05-.05-.07-.07-.11-.07-.2-.14-.27-.2-.05-.05-.12-.09-.17-.15a.7.7 0 0 0-.1-.08c-.02-.01-.03-.02-.05-.03a.913.913 0 0 0-.41-.18c-.06 0-.11-.02-.16-.03-.64-.16-1.62-.3-2.96-.83-.1-.04-.2-.08-.29-.12-.03-.01-.07-.03-.1-.04-.96-.42-1.56-.83-2.04-1.05-.03-.02-.05-.03-.08-.05-6.01-3.57-6.94-8.69-10.14-17.58-.12-.29-.18-.6-.18-.91 0-.31.07-.62.2-.9ZM21.3 23.7c-.19-.19-.29-.44-.29-.71s.11-.52.29-.71.44-.29.71-.29.52.11.71.29.29.44.29.71-.11.52-.29.71-.44.29-.71.29-.52-.11-.71-.29Z"/></svg>