<svg xmlns="http://www.w3.org/2000/svg" viewBox="0 0 43.94 60"><path d="M43.35 25.65c-.66-2.14-1.83-4.09-3.42-5.67a13.584 13.584 0 0 0-5.7-3.38c-.14-.04-.29-.05-.43-.03a.974.974 0 0 0-.7.46c-.08.13-.12.26-.14.4-.42 3.09-5.31 5.6-10.99 5.6s-10.6-2.51-10.99-5.6c-.02-.14-.07-.28-.14-.4a.922.922 0 0 0-.29-.3c-.12-.08-.25-.13-.39-.16s-.28-.02-.42.02a13.66 13.66 0 0 0-5.71 3.37A13.687 13.687 0 0 0 .6 25.63c-.66 2.14-.78 4.42-.34 6.62.43 2.2 1.41 4.26 2.83 5.99 3.14 3.77 3.32 7.26 5.43 17.61a5.217 5.217 0 0 0 3.32 3.79c.83.3 1.72.38 2.59.24.87-.14 1.69-.5 2.39-1.04 1.87-1.45 1.82-2.74 3.65-10.25.06-.36.24-.68.52-.91a1.518 1.518 0 0 1 1.96 0c.27.23.46.56.52.91l1.81 7.4c.21.85.62 1.64 1.21 2.29.59.65 1.34 1.14 2.17 1.42.83.28 1.72.35 2.58.2.86-.15 1.68-.52 2.36-1.07 1.93-1.54 1.74-2.59 3.93-13.29.48-2.68 1.64-5.19 3.35-7.3 1.42-1.73 2.4-3.79 2.83-5.99.44-2.2.32-4.47-.34-6.62Zm-1.68 6.52c-.39 1.78-1.2 3.44-2.36 4.85a18.646 18.646 0 0 0-3.77 8.09c-2.23 11.08-2.04 11.13-3.23 12.13-.42.34-.92.57-1.45.67a3.178 3.178 0 0 1-2.93-.98c-.37-.4-.62-.88-.75-1.4l-1.81-7.4v.04c-.19-.76-.64-1.44-1.26-1.92s-1.39-.74-2.18-.74c-.79 0-1.55.28-2.17.77-.62.49-1.05 1.18-1.23 1.94l-1.81 7.4c-.17.7-.58 1.33-1.15 1.77-.57.44-1.28.68-2.01.66a3.189 3.189 0 0 1-3.07-2.54C8.45 45.69 8.2 41.38 4.6 37.02a11.512 11.512 0 0 1-2.36-4.85c-.39-1.78-.36-3.63.1-5.4C2.8 25 3.66 23.37 4.87 22a11.53 11.53 0 0 1 4.42-3.1c3.01 8.21 22.32 8.21 25.32 0 1.7.67 3.21 1.73 4.42 3.1s2.07 3 2.53 4.77c.46 1.77.49 3.61.1 5.4ZM20.97 9.01v6.62l-2.29-2.29c-.19-.19-.44-.29-.71-.29s-.52.11-.71.29c-.19.19-.29.44-.29.71s.11.52.29.71c2.47 2.46 3.47 3.51 3.97 3.96 0 .01.01.03.02.04.03.03.06.04.09.06.3.25.4.23.62.23s.32 0 .62-.24c.03-.02.06-.03.08-.05 0 0 .01-.02.02-.03.51-.44 1.51-1.49 3.98-3.96.19-.19.29-.44.29-.71s-.11-.52-.29-.71c-.19-.19-.44-.29-.71-.29s-.52.11-.71.29l-2.29 2.3V9.02C33.34 8.57 36.49 1.34 34.19.63c-7.37-2.27-9.08 2.64-16.24.18-2.66-.92-5.54-.98-8.24-.18-2.26.7.8 7.94 11.24 8.39Zm-3.65-6.33c7.39 2.61 9.24-1.69 15.39-.39-1.08 2.69-5.61 4.76-10.74 4.76s-9.66-2.07-10.74-4.76c2.03-.42 4.14-.29 6.1.39Z"/></svg>