<svg xmlns="http://www.w3.org/2000/svg" viewBox="0 0 43.97 60"><path d="M25.96.81C19.68 3.04 18.34-.44 12.35.12 1.58 1.11-3.83 14.13 3.08 22.73c1.04 1.29 2 6.01 2.62 7.79a5.207 5.207 0 0 0 1.94 2.54c.89.63 1.96.96 3.05.95h.34c.03.5.07 1.18.13 2.09l-1.08-.09a.982.982 0 0 0-.73.24c-.2.17-.33.42-.35.68-.02.26.06.53.24.73.17.2.42.33.68.35l1.38.11.21 3-1.43-.12a.982.982 0 0 0-.73.24c-.2.17-.33.42-.35.68-.02.26.06.53.24.73.17.2.42.33.68.35l1.73.14c.06.9.13 1.87.2 2.92l-.77-.07c-.26-.02-.53.06-.73.23-.2.17-.33.41-.36.68-.02.26.06.53.23.73.17.2.41.33.68.36l1.09.1c.03.47.06.94.1 1.44.01.17-.09.03.7 1.53l-.7-.07c-.26-.03-.53.05-.74.22a.96.96 0 0 0-.36.68c-.03.26.05.53.22.74.17.21.41.34.68.36.7.07 1.37.14 2.02.21.75 1.42 1.8 3.41 3.28 6.24.41.77.88.54 8.78.54.64 0 .58.06 3.29-5.16 1.9.2 1.66.17 1.7.17.26.01.52-.08.72-.26.2-.18.31-.43.33-.69.01-.26-.08-.52-.26-.72-.18-.2-.43-.31-.69-.33l-.81-.09 1.55-2.97c.01-.02.02-.03.03-.04l1.13.1c.13 0 .26-.01.39-.06.12-.04.24-.11.33-.2.1-.09.18-.2.23-.31.06-.12.09-.25.09-.38s-.01-.26-.06-.39a.862.862 0 0 0-.2-.33c-.09-.1-.2-.18-.31-.23a.849.849 0 0 0-.38-.09l-1.02-.09c.05-.72.12-1.69.21-3.05l1.72.14c.26.01.52-.08.72-.26.19-.18.31-.43.32-.69.01-.26-.08-.52-.26-.72-.18-.19-.43-.31-.69-.32l-1.66-.14c.06-.88.13-1.86.2-2.97l1.38.11c.26.01.52-.08.72-.26.19-.18.31-.43.32-.69.01-.26-.08-.52-.26-.72-.18-.19-.43-.31-.69-.32l-1.33-.11c.08-1.17.17-2.47.26-3.88h.29c1.08 0 2.14-.32 3.03-.94.89-.62 1.57-1.49 1.94-2.51.62-1.8 1.62-6.51 2.62-7.79C49.43 12.13 38.94-3.76 25.96.82Zm-.58 57.16h-6.69l-2.42-4.53c5.33.56 8.72.92 10.88 1.14l-1.77 3.39Zm2.77-5.3L15.13 51.3 14 49.18l-.06-.92 15.77 1.43-1.56 2.98Zm1.92-4.95L13.8 46.24l-.19-2.94 16.66 1.38-.2 3.03Zm.33-5.03-16.92-1.41-.2-3 17.32 1.44-.2 2.97Zm.32-4.96-17.58-1.46-.15-2.25h17.97l-.24 3.72Zm8.64-16.25c-1.46 1.74-2.32 6.44-3 8.38-.23.63-.65 1.18-1.2 1.57s-1.21.59-1.89.59h-1.23c-12.08 0-17.03-.04-19.12 0h-2.24c-.67 0-1.31-.22-1.86-.6-.54-.39-.95-.93-1.18-1.56-.71-1.89-1.59-6.64-3-8.38-7.36-9.16 1.72-22.66 12.7-18.78 3 1.07 6.28 1.07 9.29 0 11.06-3.9 20.01 9.68 12.73 18.78ZM31.91 4.83c.12.2.16.44.12.68-.04.23-.16.44-.34.6-2.96 1.68-6.3 2.6-9.71 2.67-3.42-.06-6.77-.98-9.74-2.67a.985.985 0 0 1-.34-.6c-.04-.23 0-.47.12-.68s.31-.36.53-.44c.22-.08.47-.07.69 0 2.68 1.49 5.68 2.3 8.75 2.37 3.05-.07 6.04-.89 8.71-2.37.22-.08.46-.09.69 0 .22.08.41.23.53.44Z"/></svg>