<svg xmlns="http://www.w3.org/2000/svg" viewBox="0 0 60 55.75"><path d="M17.66 7.39c-.19-.16-.32-.39-.37-.64-.04-.25 0-.51.13-.72.13-.22.33-.38.57-.47.24-.08.5-.08.74.01C22.19 7.48 26.05 8.53 30 8.62c3.93-.09 7.79-1.14 11.23-3.05.24-.09.5-.09.74-.01s.44.25.57.47c.13.22.18.48.13.72-.04.25-.17.48-.37.64A26.035 26.035 0 0 1 30 10.77c-4.33-.08-8.57-1.24-12.34-3.38ZM60 21.48c0 .28-.11.56-.31.76-.2.2-.47.31-.76.31h-1.91c-.64 1.92-1.65 3.79-3.07 5.52-3.93 4.78-4.15 8.64-7.02 22.58-1.37 6.63-10.91 6.9-12.54.21l-2.31-9.44c-.12-.46-.38-.87-.76-1.17-.38-.29-.84-.45-1.32-.45s-.94.16-1.32.45c-.38.29-.64.71-.76 1.17l-2.31 9.44c-1.63 6.66-11.16 6.43-12.54-.21-2.76-13.44-3.05-17.75-7.02-22.58-1.45-1.75-2.46-3.62-3.09-5.52H1.07c-.28 0-.56-.11-.76-.31-.2-.2-.31-.47-.31-.76s.11-.56.31-.76c.2-.2.47-.31.76-.31h1.32C.15 8.58 11.6-3.59 24.85.99c8.08 2.79 9.91-1.52 17.41-.87 10.49.93 17.1 10.87 15.32 20.29h1.35c.28 0 .56.11.76.31.2.2.31.47.31.76ZM4.59 20.41h14.69v-2.14c0-1.14.45-2.23 1.26-3.03.8-.8 1.89-1.26 3.03-1.26h12.86c1.14 0 2.23.45 3.03 1.26.8.8 1.26 1.89 1.26 3.03v2.14h14.65c.32-1.47.42-2.99.28-4.51-.2-2.26-.92-4.45-2.09-6.4-1.17-1.95-2.77-3.6-4.68-4.84a15.011 15.011 0 0 0-6.32-2.31c-2.26-.28-4.55-.04-6.7.69-3.8 1.32-7.93 1.32-11.72 0C12.33-1.07 2.29 9.95 4.59 20.41Zm33.98-2.14c0-.57-.23-1.11-.63-1.52-.4-.4-.95-.63-1.52-.63H23.56c-.57 0-1.11.23-1.52.63-.4.4-.63.95-.63 1.52v6.43c0 .57.23 1.11.63 1.52s.95.63 1.52.63h12.86c.57 0 1.11-.23 1.52-.63.4-.4.63-.95.63-1.52v-6.42Zm16.15 4.28h-14v2.14c0 1.14-.45 2.23-1.26 3.03s-1.89 1.26-3.03 1.26H23.57c-1.14 0-2.23-.45-3.03-1.26s-1.26-1.89-1.26-3.03v-2.14H5.25c.56 1.43 1.36 2.83 2.46 4.16 4.36 5.28 4.68 9.98 7.5 23.51.19.96.7 1.82 1.44 2.45.75.63 1.69.98 2.66 1.01s1.93-.29 2.71-.88c.78-.59 1.32-1.43 1.56-2.38l2.3-9.45c.23-.92.77-1.73 1.51-2.32.75-.58 1.67-.9 2.61-.91.95 0 1.87.3 2.63.88.75.57 1.3 1.38 1.54 2.3l2.26 9.5c.23.94.78 1.78 1.55 2.37a4.289 4.289 0 0 0 5.35-.09c.75-.62 1.26-1.48 1.46-2.43 2.74-13.29 3.1-18.21 7.5-23.5 1.05-1.27 1.86-2.7 2.43-4.21Zm-19.36-2.14h-1.07v-1.07c0-.28-.11-.56-.31-.76-.2-.2-.47-.31-.76-.31s-.56.11-.76.31c-.2.2-.31.47-.31.76v1.07h-4.29v-1.07c0-.28-.11-.56-.31-.76s-.47-.31-.76-.31-.56.11-.76.31c-.2.2-.31.47-.31.76v1.07h-1.07c-.28 0-.56.11-.76.31-.2.2-.31.47-.31.76s.11.56.31.76c.2.2.47.31.76.31h1.07v1.07c0 .28.11.56.31.76s.47.31.76.31.56-.11.76-.31c.2-.2.31-.47.31-.76v-1.07h4.29v1.07c0 .28.11.56.31.76.2.2.47.31.76.31s.56-.11.76-.31c.2-.2.31-.47.31-.76v-1.07h1.07c.28 0 .56-.11.76-.31.2-.2.31-.47.31-.76s-.11-.56-.31-.76c-.2-.2-.47-.31-.76-.31Z"/></svg>