<svg xmlns="http://www.w3.org/2000/svg" viewBox="0 0 188.12 35.85"><path fill="#24417c" d="M29.19 1.52c-1.85-.77-3.95-.3-5.88.28-.02 0-.05.01-.07.02s-.05.01-.07.02C19.52 2.95 16 3.06 12.51 1.26 9.06-.5 3.89-.82 1.61 2.93.78 4.29.45 5.9.26 7.49c-.67 5.53.03 11.82 1.3 17.25.85 3.65 2.56 8.46 5.98 10.49.85.5 1.93.81 2.81.37.62-.31 1.02-.93 1.29-1.57.22-.5.43-1.29.68-2.19.89-3.26 2.2-8.07 5.49-6.63.99.43 1.67 1.38 2.02 2.39.33.95.45 1.93.57 2.92.16 1.26.31 2.53.89 3.7.31.64.74 1.29 1.41 1.53.51.18 1.08.1 1.59-.08 2.24-.79 4.02-3.3 5.05-5.34 3.53-6.98 4.81-15.08 3.64-22.81-.37-2.48-1.31-4.96-3.8-6Zm-3.51 11.1c-.07.06-.14.13-.23.2-1.22 1.08-3.92 3.48-8.34 3.48-2.34 0-4.33-.67-5.82-1.47-.74-.4-1.37-.84-1.86-1.26-.47-.4-.87-.83-1.11-1.22-.32-.53-.17-1.24.33-1.58.5-.34 1.17-.18 1.49.35.05.09.25.33.64.66.37.32.88.67 1.49 1.01 1.24.67 2.9 1.23 4.85 1.23 3.62 0 5.8-1.92 6.98-2.97.08-.07.15-.14.22-.2.46-.4 1.14-.33 1.51.16.38.49.31 1.21-.15 1.61Zm38.2 7c.34.69.5 1.55.5 2.58 0 1.89-.67 3.37-2.02 4.45-1.34 1.06-3.2 1.6-5.57 1.6-1.62 0-3.02-.26-4.2-.78-1.16-.54-2.22-1.35-3.19-2.44l2.86-2.83c.63.73 1.33 1.3 2.1 1.71.78.39 1.69.59 2.72.59.93 0 1.65-.17 2.16-.5.52-.34.78-.8.78-1.4 0-.54-.17-.98-.5-1.32s-.78-.63-1.34-.87c-.54-.24-1.15-.48-1.82-.7-.65-.22-1.31-.48-1.96-.76-.65-.3-1.26-.66-1.82-1.09-.54-.45-.98-1-1.32-1.65-.34-.67-.5-1.51-.5-2.52 0-1.21.29-2.26.87-3.14.6-.88 1.42-1.54 2.46-1.99 1.05-.47 2.25-.7 3.61-.7s2.64.24 3.78.73c1.16.49 2.11 1.15 2.86 1.99l-2.86 2.83c-.6-.62-1.2-1.07-1.82-1.37-.6-.3-1.28-.45-2.04-.45s-1.37.15-1.82.45c-.45.28-.67.69-.67 1.23 0 .5.17.91.5 1.23.34.3.77.56 1.32.78.56.22 1.17.45 1.82.67.67.22 1.33.49 1.99.78.65.3 1.25.68 1.79 1.15.56.45 1.01 1.03 1.34 1.74Zm23.89-3.02c.49.8.73 1.77.73 2.91v8.43h-4.28v-7.95c0-.69-.21-1.22-.64-1.6-.41-.39-.92-.59-1.54-.59-.43 0-.81.09-1.15.28-.34.17-.61.41-.81.73-.19.32-.28.71-.28 1.18v7.95h-4.28v-7.95c0-.69-.21-1.22-.64-1.6-.41-.39-.92-.59-1.54-.59-.43 0-.81.09-1.15.28-.34.17-.61.41-.81.73-.19.32-.28.71-.28 1.18v7.95h-4.28V14.33h4.28v1.02c.29-.25.6-.47.95-.65.8-.43 1.71-.64 2.72-.64.95 0 1.8.21 2.55.64.56.31 1.04.72 1.43 1.22.42-.47.9-.86 1.46-1.16.86-.47 1.82-.7 2.88-.7s1.97.22 2.77.67a4.6 4.6 0 0 1 1.93 1.88Zm7.28-8.18c.43.45.64 1.01.64 1.68s-.21 1.21-.64 1.68c-.43.45-.98.67-1.65.67s-1.23-.22-1.68-.67c-.43-.47-.64-1.03-.64-1.68s.21-1.23.64-1.68c.45-.45 1.01-.67 1.68-.67s1.22.22 1.65.67Zm-3.81 5.91h4.28v13.61h-4.28V14.33Zm7.3-6.72h4.28v20.33h-4.28V7.61Zm17.27 7.28c-1.03-.58-2.21-.87-3.56-.87s-2.62.31-3.72.92c-1.1.62-1.98 1.47-2.63 2.55-.63 1.06-.95 2.28-.95 3.64s.33 2.59.98 3.67c.65 1.08 1.55 1.93 2.69 2.55 1.16.6 2.47.9 3.95.9 1.14 0 2.18-.2 3.14-.59a6.45 6.45 0 0 0 2.44-1.76l-2.35-2.35c-.41.47-.89.82-1.43 1.06-.54.22-1.15.34-1.82.34-.73 0-1.36-.15-1.9-.45-.52-.32-.93-.76-1.23-1.32-.09-.19-.14-.41-.21-.62l9.73-.02c.07-.35.12-.66.14-.92.04-.28.06-.54.06-.78 0-1.33-.3-2.5-.9-3.53a6.204 6.204 0 0 0-2.41-2.41Zm-6.61 4.72c.05-.19.1-.39.17-.55.28-.56.66-.99 1.15-1.29.5-.32 1.09-.48 1.76-.48.64 0 1.17.14 1.6.42.45.26.78.65 1.01 1.18.09.21.16.45.21.71l-5.9.02Zm33.05-8.67c-.93-.9-2.03-1.58-3.3-2.04-1.25-.49-2.62-.73-4.12-.73h-7.92v19.77h7.98c1.48 0 2.84-.24 4.09-.73 1.27-.49 2.37-1.17 3.3-2.04.93-.88 1.65-1.92 2.16-3.14.52-1.21.78-2.54.78-3.98s-.26-2.78-.78-3.98a8.836 8.836 0 0 0-2.18-3.14Zm-2.27 10.33c-.48.91-1.18 1.61-2.07 2.1-.9.47-1.94.7-3.14.7h-3.47V12h3.47c1.2 0 2.23.24 3.11.73.9.49 1.59 1.18 2.07 2.07.5.9.76 1.97.76 3.22s-.24 2.33-.73 3.25Zm17.61-6.38c-1.03-.58-2.21-.87-3.56-.87s-2.62.31-3.72.92c-1.1.62-1.98 1.47-2.63 2.55-.64 1.06-.95 2.28-.95 3.64s.33 2.59.98 3.67c.65 1.08 1.55 1.93 2.69 2.55 1.16.6 2.47.9 3.95.9 1.14 0 2.18-.2 3.14-.59a6.45 6.45 0 0 0 2.44-1.76l-2.35-2.35c-.41.47-.89.82-1.43 1.06-.54.22-1.15.34-1.82.34-.73 0-1.36-.15-1.9-.45-.52-.32-.93-.76-1.23-1.32-.09-.19-.14-.41-.21-.62l9.73-.02c.07-.35.12-.66.14-.92.04-.28.06-.54.06-.78 0-1.33-.3-2.5-.9-3.53a6.204 6.204 0 0 0-2.41-2.41Zm-6.61 4.72c.05-.19.1-.39.18-.55.28-.56.66-.99 1.15-1.29.5-.32 1.09-.48 1.76-.48.63 0 1.17.14 1.6.42.45.26.78.65 1.01 1.18.09.21.15.45.21.71l-5.9.02Zm24.58-2.96c.45.78.67 1.64.67 2.58v8.71h-4.28v-7.76c0-.71-.22-1.28-.67-1.71-.43-.45-.98-.67-1.65-.67-.47 0-.88.1-1.23.31-.35.19-.63.47-.84.84-.2.35-.31.77-.31 1.23v7.76h-4.28V14.33h4.28v1.08c.29-.26.62-.5.98-.69.84-.45 1.78-.67 2.83-.67s1.9.24 2.66.73c.78.47 1.4 1.09 1.85 1.88Zm12.56-2.32v3.64h-3.08v9.97h-4.28v-9.97h-3.08v-3.64h3.08V8.7h4.28v5.63h3.08Z"/></svg>