<svg xmlns="http://www.w3.org/2000/svg" viewBox="0 0 155.54 30"><path fill="#ffffff" d="M24.43.23c.49.16.94.42 1.31.77.37.35.65.78.82 1.26.1.22.16.45.18.69.02.23.03.46.03.69-.03.83-.06 1.64-.08 2.43-.02.79-.04 1.6-.08 2.43-.07 3.21-.15 6.39-.25 9.55l-.3 9.55c0 .49-.25.94-.76 1.34a2.4 2.4 0 0 1-.87.32c-.3.05-.61.06-.92.02a2.69 2.69 0 0 1-1.73-.84c-.21-.2-.38-.44-.51-.69-.13-.25-.2-.52-.2-.79l.15-5.36c.07-1.59.12-3.17.15-4.74.03-1.57.09-3.15.15-4.74v-.7c0-.23.02-.46.05-.69-.13.27-.25.52-.36.77-.1.25-.2.5-.3.77-.61 1.39-1.23 2.76-1.88 4.12-.64 1.36-1.36 2.7-2.14 4.02-.17.3-.35.6-.53.89-.19.3-.38.58-.58.84-.49.78-1.22 1.39-2.08 1.74-.72.3-1.53.34-2.28.12-.75-.2-1.44-.57-2.02-1.07-.3-.26-.56-.55-.79-.86-.22-.32-.42-.66-.58-1.02a46.51 46.51 0 0 1-1.57-3.72c-.47-1.26-.93-2.52-1.37-3.77-.03.73-.05 1.46-.05 2.18v2.23c.03 1.62.11 3.24.23 4.84s.28 3.22.48 4.84c.02.13 0 .27-.04.39s-.11.25-.19.35c-.17.22-.37.42-.58.6-.23.19-.52.32-.82.35-.31.03-.62.03-.93 0-.68-.07-1.32-.36-1.8-.84-.23-.18-.39-.42-.46-.69-.14-.24-.21-.52-.21-.79-.14-.93-.24-1.84-.31-2.73-.07-.89-.14-1.8-.2-2.73a102.9 102.9 0 0 1-.16-9.77c.13-3.24.44-6.47.93-9.68 0-.43.13-.76.36-.99l.41-.4c.27-.16.56-.27.87-.32.31-.05.62-.06.93-.03.67.06 1.29.36 1.75.84l.25.25c.23.28.42.6.56.94.24.63.46 1.26.66 1.89.2.63.42 1.26.66 1.89.41 1.12.8 2.24 1.19 3.35.39 1.11.79 2.22 1.19 3.35.37.99.73 1.99 1.07 3 .34 1 .73 1.99 1.17 2.95.1-.16.2-.33.3-.49l.3-.49c.78-1.39 1.49-2.79 2.13-4.19.64-1.41 1.27-2.84 1.88-4.29.58-1.36 1.18-2.71 1.8-4.07.62-1.35 1.33-2.66 2.11-3.92.17-.32.41-.59.7-.81.29-.22.62-.37.98-.45a3.69 3.69 0 0 1 2.18.12ZM36.9 4.6a90 90 0 0 0-.25 20.75c0-.03.08-.05.23-.05s.32 0 .51.02c.18.02.36.05.53.1.1.03.2.06.31.07.51.18.97.49 1.32.89.36.43.55.96.54 1.51-.02.55-.31.95-.89 1.22-.29.16-.61.25-.94.27-.32.02-.65.03-.99.03h-4.43c-.48 0-.93-.02-1.37-.05-.44-.03-.88-.15-1.27-.35-.47-.23-.86-.61-1.09-1.07a1.694 1.694 0 0 1-.13-1.41c.1-.24.25-.46.44-.64s.42-.32.68-.4c.52-.2 1.08-.25 1.63-.15-.37-3.45-.54-6.91-.51-10.37.03-3.44.24-6.88.61-10.32-.41-.07-.82-.17-1.22-.3-.39-.12-.76-.33-1.07-.6-.3-.29-.51-.66-.61-1.07-.11-.39-.05-.81.15-1.17.13-.22.31-.42.52-.57.22-.15.46-.25.72-.3.54-.11 1.1-.17 1.65-.17h3.87c.51 0 1.02.02 1.53.05.51.04 1.02.17 1.48.4.46.25.84.63 1.09 1.09a1.505 1.505 0 0 1 .08 1.39c-.11.28-.29.52-.53.7-.23.19-.5.32-.79.4-.28.1-.58.15-.89.15-.3 0-.6-.02-.9-.05Zm24.68-1.93c0 .14 0 .28.03.42.02.12.03.25.03.37.24 3.71.31 7.44.23 11.19-.08 3.74-.5 7.47-1.25 11.14-.1.5-.24.99-.41 1.46-.17.48-.45.91-.81 1.27-.28.26-.62.46-.99.59-.37.13-.76.18-1.15.15a4.24 4.24 0 0 1-2.29-.74 6.234 6.234 0 0 1-1.6-1.68c-.42-.66-.82-1.34-1.2-2.03a89.395 89.395 0 0 1-2.98-6.28c-.9-2.1-1.79-4.23-2.67-6.38-.17 2.34-.21 4.68-.13 7.02.08 2.33.26 4.67.54 7.02.07.48.09.96.08 1.44 0 .44-.18.86-.48 1.19-.31.32-.72.53-1.17.57-.43.05-.86 0-1.27-.12-.27-.07-.52-.17-.76-.3-.23-.13-.44-.29-.61-.49-.27-.29-.46-.65-.54-1.04-.08-.4-.16-.79-.23-1.19-.41-3.92-.59-7.87-.56-11.81.04-3.95.32-7.9.87-11.81.06-.24.12-.49.15-.74.04-.24.14-.46.31-.65.34-.56.87-.84 1.58-.84.66-.02 1.31.19 1.83.6.51.37.93.86 1.22 1.41.3.57.57 1.16.81 1.76 1.26 3.11 2.53 6.18 3.82 9.21 1.29 3.03 2.65 6.05 4.07 9.06.82-6.37 1.02-12.8.61-19.21-.03-.46-.03-.93.03-1.39.02-.22.08-.43.19-.61.11-.19.26-.35.44-.48.23-.16.5-.27.79-.32.28-.05.56-.07.84-.08.38.07.76.17 1.12.3.37.13.71.35.97.65.16.19.29.41.36.65.07.22.13.47.2.74Zm20.26 18.01c.2.19.36.43.46.68.11.26.16.53.15.81.03.46-.19.88-.66 1.24 0 .83-.03 1.64-.08 2.43-.05.79-.11 1.6-.18 2.43-.04.4-.21.79-.48 1.09-.25.27-.58.45-.94.55-.38.1-.78.12-1.17.05-.4-.06-.78-.2-1.12-.4-.92-.53-1.34-1.27-1.27-2.23 0-.07.02-.28.05-.65.03-.36.07-.76.1-1.19.03-.49.07-1.04.1-1.64a72.4 72.4 0 0 0-7.13.45c.03 0 .08.19.15.57.07.38.14.82.2 1.31.07.5.12.97.15 1.41.03.45.03.72 0 .82-.1.26-.27.5-.48.68-.22.18-.48.31-.76.36-.56.13-1.15.12-1.71-.05-.78-.27-1.29-.68-1.53-1.24-.25-.61-.46-1.24-.61-1.89-.07-.43-.14-.86-.2-1.29-.07-.43-.14-.86-.2-1.29a2.93 2.93 0 0 1-.61-.94c-.07-.27-.08-.55-.03-.82.04-.26.16-.51.33-.72h.02c.01 0 .01 0 .02-.01 0 0 0-.01.01-.02v-.02c.07-.07.1-.22.1-.45 0-.26-.02-.51-.05-.77-.03-.28-.07-.55-.1-.79-.03-.17-.04-.35-.05-.52 0-1.29.03-2.58.08-3.87s.19-2.57.41-3.85c.22-1.27.55-2.51.99-3.72.45-1.23 1.07-2.39 1.83-3.45a8.21 8.21 0 0 1 2.98-2.63C71.8.48 73.17.27 74.5.51c1.26.15 2.44.65 3.42 1.44.96.77 1.72 1.76 2.19 2.88.47.98.77 2.03.89 3.1.12 1.08.23 2.14.33 3.21.14 1.26.23 2.53.28 3.82.05 1.29.11 2.57.18 3.82 0 .1 0 .25-.03.42s-.03.38-.03.6v.57c0 .16.04.26.1.29Zm-12.27-6.4c-.1.96-.18 1.93-.23 2.9-.05.99-.04 1.97.03 2.96 0-.03.24-.07.71-.1.48-.03 1.01-.07 1.6-.1.59-.03 1.16-.06 1.71-.08.54-.02.87-.02.97-.02s.27 0 .51.02c.23.02.48.03.74.05.24.02.48.02.71 0 .22-.02.36-.06.43-.12.08-.12.13-.26.13-.4.02-.21.02-.41 0-.62-.02-.21-.03-.43-.05-.65-.02-.22-.03-.37-.03-.47-.07-1.69-.16-3.34-.28-4.96-.12-1.62-.28-3.26-.48-4.91-.07-.43-.14-.86-.23-1.29-.08-.42-.25-.83-.48-1.19-.11-.21-.26-.39-.43-.55-.18-.16-.4-.26-.63-.3-.28-.03-.55.03-.79.17s-.45.31-.63.52c-.78.83-1.39 1.8-1.78 2.85-.4 1.06-.73 2.15-.97 3.25-.1.49-.2 1-.28 1.51-.08.51-.16 1.01-.23 1.5Zm34.92 2.43c.68.6 1.15 1.38 1.38 2.24.2.83.2 1.7 0 2.53-.21.88-.57 1.72-1.07 2.48-.48.76-1.07 1.46-1.73 2.08-1.07.95-2.3 1.71-3.64 2.26-1.33.54-2.76.86-4.2.92-1.44.06-2.88-.17-4.22-.7-2.36-.93-4.28-2.71-5.35-4.96-.44-.97-.77-1.98-.97-3.03-.2-1.05-.3-2.11-.28-3.18.02-1.06.11-2.13.28-3.18.17-1.28.44-2.55.81-3.8.38-1.25.89-2.45 1.53-3.6.66-1.14 1.47-2.2 2.41-3.13.93-.93 2.03-1.68 3.23-2.23C93.88.84 95.2.53 96.54.49c1.33-.06 2.66.2 3.87.77.51.23.97.56 1.35.97.19.19.33.42.41.68.08.25.11.52.07.79-.03.22-.11.44-.22.63-.12.19-.28.36-.46.49-.37.27-.83.41-1.3.37-.37 0-.75-.07-1.1-.2-.35-.13-.72-.23-1.09-.3-.62-.1-1.25-.06-1.86.1-.61.16-1.19.43-1.71.79-.51.36-.97.78-1.37 1.24-.41.47-.79.97-1.12 1.49a17.661 17.661 0 0 0-2.34 12.26c.14.63.32 1.26.56 1.86.23.61.6 1.16 1.07 1.61.54.49 1.21.83 1.93.97.74.15 1.5.14 2.24-.02.73-.16 1.43-.44 2.06-.82.64-.39 1.24-.83 1.81-1.31.56-.48 1.02-1.05 1.38-1.69.18-.3.3-.64.34-.99.04-.35.01-.7-.09-1.04-.61-.03-1.22.07-1.78.3-.58.23-1.15.48-1.73.74-.58.26-1.15.51-1.73.74-.56.23-1.18.31-1.78.25a2.77 2.77 0 0 1-1.65-.82c-.49-.48-.67-1-.54-1.56.1-.46.36-.86.74-1.14.37-.28.77-.53 1.2-.74.79-.4 1.59-.76 2.42-1.07.83-.31 1.69-.54 2.57-.67.88-.13 1.77-.12 2.65.02.87.14 1.7.46 2.44.92.14.1.26.2.38.3.12.1.23.21.34.31ZM130.4 6.24c.71 1.08 1.25 2.25 1.63 3.47.37 1.23.59 2.49.66 3.77.1 1.24.05 2.49-.15 3.72-.14.73-.3 1.42-.48 2.08-.19.67-.42 1.34-.69 1.99a17.32 17.32 0 0 1-2.19 3.55 12.26 12.26 0 0 1-3.16 2.8c-1.35.84-2.85 1.41-4.43 1.69-.67.13-1.35.21-2.04.22-.68.02-1.37-.04-2.04-.17-.75-.16-1.49-.36-2.22-.62-.7-.25-1.38-.58-2.01-.97-.6-.39-1.17-.84-1.68-1.34-.51-.49-1-1.02-1.48-1.59-.87-1.1-1.53-2.34-1.93-3.67a16.09 16.09 0 0 1-.71-4.07v-.97c0-.31.02-.65.05-1.02.07-1.4.29-2.79.66-4.14.37-1.38.92-2.7 1.63-3.95.34-.62.71-1.23 1.12-1.81.86-1.22 1.95-2.27 3.21-3.08.67-.43 1.39-.79 2.14-1.07 1.29-.5 2.66-.75 4.05-.74 1.38 0 2.74.26 4 .79 1.26.51 2.42 1.22 3.44 2.11 1.01.89 1.89 1.9 2.63 3.01Zm-2.85 10.33c.27-1.5.3-3.02.08-4.53-.21-1.47-.72-2.89-1.5-4.17-.48-.76-1.06-1.45-1.73-2.06-.66-.6-1.47-1.04-2.34-1.27-.81-.17-1.65-.14-2.44.07-.8.21-1.56.55-2.24 1.02-.68.46-1.27 1.02-1.76 1.67-.49.65-.93 1.34-1.3 2.06-.71 1.32-1.23 2.73-1.53 4.19-.3 1.46-.39 2.96-.25 4.44.1 1.33.43 2.64.97 3.87a5.64 5.64 0 0 0 2.6 2.83c1.26.66 2.62.83 4.1.52A7.95 7.95 0 0 0 124 23.3c.96-.87 1.74-1.9 2.32-3.05a13.81 13.81 0 0 0 1.25-3.7Zm24.43-12.81c.13.09.25.2.36.32.1.12.22.24.36.37 1.39 1.49 2.24 3.13 2.55 4.91.31 1.82.38 3.68.2 5.52-.17 1.89-.67 3.73-1.48 5.46-.8 1.74-1.94 3.31-3.36 4.62-1.6 1.49-3.48 2.65-5.55 3.42-2.07.79-4.29 1.14-6.52 1.04-.41-.03-.81-.08-1.2-.15-.38-.06-.72-.23-.99-.49-.33-.29-.57-.67-.66-1.09-.1-.43-.19-.86-.25-1.29-.92-7.9-.83-15.89.25-23.77.07-.36.15-.72.25-1.07.09-.33.28-.62.56-.82.2-.13.43-.21.66-.25.25-.03.51-.05.76-.05 1.32-.07 2.65-.08 3.97-.05 1.32.03 2.63.18 3.92.45 1.12.26 2.21.63 3.26 1.09 1.06.46 2.04 1.08 2.91 1.83Zm-1.57 10.81c.06-.21.11-.43.13-.65.02-.2.04-.41.08-.64.13-1.2.07-2.41-.18-3.6-.25-1.27-.8-2.32-1.65-3.15-.58-.56-1.27-1-2.04-1.29-.77-.29-1.57-.49-2.39-.6-1.16-.2-2.34-.27-3.51-.2-.09.02-.17.05-.25.1-.02.01-.03.03-.04.04 0 .02-.02.04-.02.05 0 .05-.02.1-.05.15a96.7 96.7 0 0 0-.69 10.2c-.05 3.4.09 6.81.43 10.2 1.51-.16 2.96-.65 4.25-1.44a11.68 11.68 0 0 0 3.29-2.93c.68-.93 1.24-1.92 1.68-2.98.44-1.06.76-2.15.96-3.28Z"></path></svg>