<svg xmlns="http://www.w3.org/2000/svg" viewBox="0 0 104.16 30"><path fill="#ffffff" d="M81.11 12.92c-1.53-1.39-3.71-3.29-5.07-4.49-2.03-1.79-1.14-4.36 1.34-4.36 1.93 0 3.51 1.12 4.42 2.62V4.67c-1.04-.58-2.57-.91-4.11-.9-2.87 0-6.01 1.38-6.17 4.5-.07 1.35.57 2.57 1.76 3.66.22.2.46.41.72.61l-1.89 3.6-.69 1.24-.55.99-.21.38c.04.06.16.2.2.26 1.53 2.62 3.95 3.44 6.26 3.44 5.71 0 8.48-5.42 4.5-9.09-.16-.15-.32-.3-.5-.45Zm-3.99 9.23c-1.55 0-2.69-1.11-3.73-2.54-1.23-1.68-.87-3.6.07-5.29s.76-1.57.76-1.57c1.25 1.07 2.84 2.28 4.82 4.19 1.47 1.42 1.18 5.22-1.92 5.22ZM29.95 4.9v.03l-.93 2.69-1.57 4.51-.09.27c-.07.21-.13.42-.18.63h-.29c.81-2.76 1.99-6.02-1.13-7.61-1.75-.9-4.23.43-4.24 3.17v11.73c0 .22.05.44.14.64.09.2.23.38.4.52.34.23.74.34 1.15.33v.2h-7.7v-.2c.91 0 1.69-.46 1.69-1.48V5.83c0-1.14-.78-1.41-1.69-1.41v-.2h4.34l1.32 3.79c.18-1.97 1.07-3.19 2.4-3.79.69-.31 1.49-.46 2.38-.46.92-.01 1.84.14 2.71.46.37.14.73.32 1.07.53.07.05.14.09.21.14Zm31.78-.67h7.7v.2c-.91 0-1.69.46-1.69 1.48v14.48c0 1.14.78 1.41 1.69 1.41v.2h-4.34l-1.32-3.79c-.27 2.98-2.97 4.24-5.59 4.25-3.25 0-5.81-1.71-5.81-4.7V5.91c0-1.03-.78-1.48-1.69-1.48v-.2h7.7v.2c-.91 0-1.69.46-1.69 1.48v11.31c0 5.52 6.74 4.65 6.74.42V5.91c0-.22-.05-.44-.14-.64-.09-.2-.23-.38-.4-.52-.34-.23-.74-.34-1.15-.33v-.2ZM12.81 20.39V8.31c-.09-.8-.38-1.55-.84-2.2-.63-.9-1.59-1.64-2.8-2.08-.27-.1-.55-.18-.83-.25-.62-.14-1.25-.21-1.88-.21a7.95 7.95 0 0 0-3.01.55c-.09.04-.19.08-.28.12-.36.17-.7.36-1.03.59l-.24.18-.15.12A7.2 7.2 0 0 0 .19 7c-.04.06-.16.19-.2.26l.22.39.55.99.69 1.24.07.13.23.44 1.59 3.04s-.2.16-.24.19c-.92.73-1.88 1.61-2.45 2.65-1.04 1.88-.51 4.54 1.55 5.47.7.32 1.55.44 2.45.44 2.06 0 3.98-1.83 4.19-4.03l.99 2.84.33.94v.02h4.35v-.2c-.91 0-1.69-.27-1.69-1.41Zm-4.33-3.58c0 1.9-2.42 2.64-3.86 1.78-1.58-.94-2.33-3.62-.19-5.51l.93-.81.02-.03c.63-.55 1.72-1.51 2.59-2.28l.02-.02.15-.13h.02l.01-.03.1-.09h.01l.03-.03v-.01l.03-.03h.01l.04-.03.04-.03.04-.04v7.29Zm.02-7.82-.1.1C6.42 11 4.83 12.21 3.58 13.28l-.76-1.58c-.42-.72-.7-1.51-.82-2.33-.13-.94.07-1.89.57-2.69l.18-.27.05-.07c1.03-1.4 2.15-2.47 3.68-2.47.34 0 .67.05.99.15.14.05.28.11.42.18 1.69.93 1.72 3.56.61 4.78ZM40 19.84c5.13 0 9.29-3.6 9.29-8.03 0-.69-.1-1.38-.3-2.04v-.02c-.06-.18-.13-.36-.2-.54l-.96-2.76-.07-.19-.1-.29c-.25-.74-.4-1.56-.28-2.33.06-.37.18-.73.38-1.06.12-.19.25-.37.41-.52.16-.16.34-.29.53-.41L47.76 0s-.08.07-.12.11c-.52.51-.87 1.18-.99 1.91-.18 1.04.25 2.45.7 3.95.05.16.1.32.14.49.09.32.17.62.23.92-1.66-2.16-4.51-3.59-7.74-3.59-5.13 0-9.29 3.6-9.29 8.03 0 2.05.89 3.93 2.36 5.35.05.05.3.28.36.33l-1.71 3.07-.19.34c2.33 3.52 6.57.04 9.73.37 3.04.31 4.62 4.68 2.42 6.96-.84.87-2.13 1.45-3.67 1.45-3.35 0-5.91-3.99-6.86-6.71s-2.43 4.38-2.43 4.38c2.41 2.03 5.93 2.7 9.64 2.65 4.57-.06 8.82-1.51 8.94-4.81.07-1.79-1.15-3.47-3.53-4.11-2.46-.66-4.97-.14-7.46-.02-2.55.12-5.16-.07-4.49-3.27 1.64 1.27 3.82 2.05 6.2 2.05Zm.01-15.83c2.75 0 4.97 3.49 4.97 7.79s-2.22 7.79-4.97 7.79-4.97-3.49-4.97-7.79 2.23-7.79 4.97-7.79Zm54.85-.24c-5.14 0-9.3 4.18-9.3 9.34s4.16 9.34 9.3 9.34 9.3-4.18 9.3-9.34-4.16-9.34-9.3-9.34Zm0 18.42c-2.75 0-4.97-4.07-4.97-9.08s2.23-9.08 4.97-9.08 4.97 4.07 4.97 9.08-2.23 9.08-4.97 9.08Z"></path></svg>