<svg xmlns="http://www.w3.org/2000/svg" viewBox="0 0 132 30"><path fill="#ffffff" d="M33.75 0C25.88 0 19.5 6.38 19.5 14.25S25.88 28.5 33.75 28.5 48 22.12 48 14.25 41.62 0 33.75 0Zm0 21C30.02 21 27 17.98 27 14.25s3.02-6.75 6.75-6.75 6.75 3.02 6.75 6.75S37.48 21 33.75 21Zm-22.5 0h8.25v7.5h-8.25C5.04 28.5 0 23.46 0 17.25V0h7.5v17.25c0 2.07 1.68 3.75 3.75 3.75Zm103.5-21c-7.87 0-14.25 6.38-14.25 14.25s6.38 14.25 14.25 14.25S129 22.12 129 14.25 122.62 0 114.75 0Zm0 21c-3.73 0-6.75-3.02-6.75-6.75s3.02-6.75 6.75-6.75 6.75 3.02 6.75 6.75-3.02 6.75-6.75 6.75Zm-30-21h-21C55.88 0 49.5 6.38 49.5 14.25S55.88 28.5 63.75 28.5h21c1.48 0 2.9-.23 4.24-.64L93 30l4.33-8.1c1.1-2.06 1.67-4.36 1.67-6.7v-.95C99 6.38 92.62 0 84.75 0Zm6.75 14.3a6.75 6.75 0 0 1-6.75 6.7h-21C60.02 21 57 17.98 57 14.25s3.02-6.75 6.75-6.75h21c3.73 0 6.75 3.02 6.75 6.75v.05ZM132 1.88c0 1.04-.84 1.88-1.88 1.88s-1.88-.84-1.88-1.88.84-1.88 1.88-1.88S132 .84 132 1.88Z"></path></svg>