<svg xmlns="http://www.w3.org/2000/svg" viewBox="0 0 101.84 30"><path fill="#ffffff" d="M101.1.72C100.63.26 99.99 0 99.32 0H96.8v9.72c-1.68-1.37-3.78-2.05-6.3-2.05-2.5 0-4.68.94-6.55 2.81-1.87 1.88-2.81 4.23-2.81 7.06 0 2.83.93 5.18 2.79 7.04 1.86 1.86 4.05 2.8 6.57 2.79 2.5 0 4.6-.67 6.3-2.01v1.45h5.04V2.46c0-.65-.27-1.27-.74-1.74Zm-5.94 20.83c-1.09 1.04-2.36 1.55-3.78 1.55-1.55 0-2.83-.5-3.84-1.51-1.01-1.01-1.51-2.35-1.51-4.04s.5-3.04 1.51-4.06c1.01-1.02 2.29-1.53 3.84-1.53 1.43 0 2.69.52 3.78 1.56 1.09 1.04 1.64 2.38 1.64 4.02s-.54 2.97-1.64 4Zm-74.42-8.92a4.139 4.139 0 0 0-2.26 2.24c-.21.5-.31 1.03-.3 1.57 0 2.66.02 5.28.02 7.96 0 .64-.26 1.25-.73 1.7-.46.45-1.09.71-1.74.71h-2.47c0-3.47-.02-6.88-.02-10.36 0-.53-.11-1.06-.32-1.55-.21-.49-.52-.94-.9-1.32-.39-.38-.84-.68-1.35-.88-.5-.2-1.05-.31-1.59-.31s-1.09.1-1.59.31c-.5.2-.96.5-1.35.88-.39.38-.69.82-.9 1.32-.21.49-.32 1.02-.32 1.55v7.96c0 .64-.26 1.25-.73 1.7-.46.45-1.09.7-1.74.71H0V16.46c0-4.9 4.09-8.9 9.1-8.9 1.24 0 2.47.25 3.61.73a9.02 9.02 0 0 1 3.02 2.08c.85-.89 1.87-1.59 3.01-2.08 1.14-.48 2.37-.73 3.61-.73 5 0 9.1 3.99 9.1 8.87v4.13l-2.73 1.61-.16.1-2.05 1.21-3.77 2.19c-.03.02-.05.03-.08.03h-.09c-.03 0-.06-.02-.08-.04-.02-.02-.05-.04-.06-.07-.02-.03-.03-.05-.03-.08v-.09c0-.03.02-.06.04-.08.02-.02.04-.04.07-.06l4-2.34v-6.52c0-.54-.09-1.07-.3-1.57s-.51-.95-.9-1.34c-.39-.38-.85-.69-1.36-.9-.51-.21-1.05-.31-1.61-.31s-1.1.11-1.61.31ZM76.58.72c.47.46.74 1.08.74 1.74v24.36h-5.04v-1.45c-1.71 1.34-3.81 2.07-6.3 2.01-5.37-.12-9.13-6.38-4.32-11.33-.1.49-.15.99-.15 1.49 0 1.69.5 3.04 1.51 4.04 2.09 2.09 5.52 1.94 7.62-.04 1.09-1.04 1.64-2.36 1.64-4s-.55-2.98-1.64-4.02l-.3-.27c-.95-.85-2.2-1.31-3.49-1.3-3.59 0-6.1 3.3-8.18 5.76-1.34 1.59-2.65 3.22-4.11 4.72-.6.62-1.22 1.22-1.88 1.77-2.95 2.46-6.09 3.59-9.33 3.11-.26-.04-.51-.09-.77-.14l-.21-.05c-2.18-.53-3.99-1.71-5.42-3.56l-5.52 3.26-4.93 2.91v-.61l-1.45.85s-.05.03-.08.03h-.09c-.03 0-.06-.02-.08-.04l-.06-.06a.202.202 0 0 1-.02-.17c.01-.06.05-.11.1-.14l4.74-2.79 1.89-1.11s.05-.03.06-.06c.02-.02.03-.05.04-.08v-.09c0-.03-.01-.06-.03-.08-.02-.02-.04-.05-.06-.06-.02-.02-.05-.03-.08-.04h-.09c-.03 0-.06.01-.08.03l-5.47 3.24v-1.17l7.77-4.59s.05-.03.07-.06c.02-.02.03-.05.04-.08v-.09c0-.03-.01-.06-.03-.08a.243.243 0 0 0-.14-.1c-.06-.01-.12 0-.17.02l-6.21 3.66-6.3 3.71s-.05.03-.08.03h-.09c-.03 0-.06-.02-.08-.04-.02-.02-.05-.04-.06-.07-.02-.03-.03-.05-.03-.08v-.09c0-.03.02-.06.04-.08.02-.02.04-.04.07-.06l5.97-3.51v-.2l4.94-2.91 3.81-2.24 12.13-7.15c-.58-.55-1.19-.93-1.82-1.15-.31-.11-.64-.18-.98-.2-1.01-.08-2.02.16-2.88.69-.89.53-1.6 1.31-2.03 2.24-.14.3-.25.61-.31.93l-1.13.67v.02l-5.98 3.5c-.05.03-.11.03-.17.02-.06-.01-.1-.05-.13-.1s-.04-.1-.03-.16c.01-.05.05-.1.09-.13l2.65-1.55c-.11-1.07-.02-2.15.25-3.18.53-2.08 1.64-3.78 3.33-5.09-.52-.1-1-.35-1.38-.72-.37-.37-.62-.85-.71-1.36-.09-.51-.01-1.04.22-1.51s.6-.86 1.06-1.12 1-.37 1.53-.32c.53.05 1.03.25 1.44.59.41.34.7.78.84 1.29.14.5.11 1.03-.07 1.52 1.72-.62 3.52-.71 5.42-.28 2.23.51 4.08 1.69 5.55 3.54.21.26.41.54.6.82l.88 1.44-12.43 7.31c.91 1 1.95 1.61 3.12 1.84a4.472 4.472 0 0 0 3.25-.55c.11-.06.21-.13.31-.19 2.02-1.18 3.85-3.22 5.69-5.4 2.82-3.33 5.98-7.76 10.53-8.93a8.99 8.99 0 0 1 1.87-.19c1.99 0 3.71.42 5.18 1.27.39.23.77.49 1.12.78V0h2.52c.67 0 1.31.26 1.78.72Z"></path></svg>