<svg xmlns="http://www.w3.org/2000/svg" viewBox="0 0 105.98 30"><path fill="#ffffff" d="M27.22 1.42c-4.5 9.05-6.59 18.85-7.72 24.12-.74 3.46-.85 4-1.47 4.18-.02 0-.04.01-.07.02-.29.17-.61.27-.95.27-.39 0-.77-.13-1.14-.39-2.12-1.51-3.56-7.87-3.88-13.04-.3.92-.61 1.89-.95 2.86-2.89 8.37-4.12 8.67-4.79 8.68-.18.03-.36.05-.54.05-.75 0-1.68-.3-2.55-1.4C-.53 22.11-.79 5.75 1.35 1.38 1.8.46 2.38 0 3.06 0c.54 0 .99.18 1.33.54.93.98.81 3.04.6 6.45-.12 1.94-.27 4.36-.23 7.05.09 6.6.91 11.52 1.52 12.6 1.29-1.08 4.06-8.86 6-15.84 0 0 0-.02.01-.03.02-.06.03-.13.05-.19.41-1.26 1.1-1.53 1.61-1.53 2.03 0 2.1 2.48 2.19 5.91.03 1.26.07 2.68.2 4.17.41 4.68.77 7.1 1.29 8.41.15-.62.32-1.45.5-2.29 1.14-5.32 3.26-15.24 7.83-24.44.04-.08.1-.15.16-.21.07-.06.15-.1.23-.13.09-.03.18-.04.27-.04.09 0 .18.03.26.07.08.04.15.09.21.16s.11.15.14.23c.03.09.04.18.04.26 0 .09-.03.18-.07.26Zm78.66 18.53c-.32.45-3.01 4.17-5.75 4.6-.26.04-.52.06-.78.06-.75 0-1.85-.15-2.78-.9-.96-.77-1.51-1.97-1.64-3.56-.5.9-1.02 1.79-1.59 2.66-.54.83-1.11 1.64-1.76 2.39-.51.59-1.08 1.18-1.77 1.58-.41.24-.87.36-1.34.36-.88 0-1.58-.29-2.07-.87-1.53-1.8-.42-5.95.57-9.61.34-1.27.74-2.76.86-3.68-1.53 1.15-3.85 5.72-5.4 10.01-.44 1.5-.89 2.22-1.5 2.53-.2.1-.43.16-.66.16-.41 0-.74-.16-.89-.23-1.29-.61-.93-2.9-.2-6.88.3-1.65.8-4.33.58-5.09-.07.01-.14.03-.21.05-.03 0-.06.02-.1.02-1.13.67-2.76 3.91-3.93 7.92-.16 1.35-.58 2.31-1.74 2.31-2.03 0-2.13-2.56-2.23-5.27l-.02-.57c-.02-.61-.03-1.18-.01-1.71-.9.96-1.98 1.74-3.09 2.18-1.3 3.61-3.72 7.09-6.17 7.09h-.14c-1.57-.05-4.32-1.03-4.32-4.44v-.29c-1.69 2.14-4.22 4.73-6.5 4.74h-.07c-.15 0-.3-.02-.45-.06-1.5-.27-3.81-1.48-4.45-4.64-.84 1.68-1.79 3.34-3 4.79-.58.69-1.23 1.37-2.04 1.8-.76.4-1.6.46-2.42.24-.66-.18-1.26-.5-1.77-.95-1.22-1.07-1.99-2.81-2.31-5.18-.75 1.14-1.59 2.24-2.58 3.18-1.02.97-2.24 1.77-3.69 1.85-1.08.06-2.2-.22-3.06-.9-1.11-.89-1.67-2.34-1.67-4.33 0-3.02 1.51-6.08 3.85-7.8 1.46-1.08 3.01-1.46 4.38-1.08.44.05.85.24 1.17.54.36.34.87 1.11.31 2.48-.82 2.03-3.75 4.59-6.07 4.99-.09.61-.14 1.24-.14 1.86 0 .35 0 1.16.21 1.85.11.35.28.76.64.93.57.26 1.32-.1 1.81-.39.51-.3.97-.69 1.39-1.1.91-.9 1.69-1.93 2.38-3 .18-.27.35-.55.52-.83l.21-.36c.04-.07.18-.24.18-.33v-.24c0-8.43 3.81-15.39 7.49-17.25 1.32-.67 2.61-.66 3.68 0 .07.04.13.08.2.12h.01s0 .02.01.02c.31.23.61.6.73 1.24.58 3.13-4.19 11.27-8.15 15.05-.01.23-.02.46-.02.68v.3c-.04 1.69-.03 3.42.26 5.1.12.66.27 1.41.68 1.97.85 1.17 2.63-1.19 3.07-1.77 1.09-1.45 1.97-3.05 2.77-4.67.33-.68.65-1.37.94-2.06.45-2.66 1.97-5.05 3.65-6.37 1.61-1.26 3.35-1.62 4.9-1 .43.17.97.57 1.14 1.51.29 1.52-.62 3.82-1.57 4.7-.13.12-.31.19-.49.19s-.36-.08-.48-.21-.19-.31-.19-.49.08-.35.22-.48c.66-.62 1.35-2.44 1.16-3.46-.07-.39-.24-.46-.31-.49h-.03c-.32-.12-.7-.04-1.12.24-1.6 1.06-3.33 4.65-3.33 8.59 0 1.28.43 3.77 1.41 3.84h.05c2.45-.01 6.05-4.9 7.23-6.78.51-1.14 1.25-2.08 2.17-2.69.46-.31.98-.52 1.53-.61.03-.53.12-1.06.28-1.57.61-1.88 1.96-3.05 3.53-3.05 1.13 0 2.04.44 2.61 1.28.49.71.73 1.68.73 2.88 0 .9-.15 1.93-.42 3 1.3-.84 2.47-2.2 3.05-3.65.2-.52.45-.91.76-1.17.2-.17.43-.3.68-.36.25-.07.52-.08.77-.03 1.73.31 1.61 2.22 1.48 4.43l-.06 1.12c1.06-2.47 2.51-4.86 4.19-4.86h.14c1.09-.1 1.8.3 2.23.69.88.8 1.3 2.25 1.26 4.2 1.4-2.81 3.19-5.5 4.9-5.6h.17c.86.02 1.36.42 1.63.76 1.22 1.55.31 5.13-.56 8.58-.45 1.79-1.13 4.46-.86 5.07 1.39-.12 4.58-5.14 6.77-9.79 0-.01.01-.02.02-.04.65-1.74 1.77-3.29 3.2-4.34.84-.61 1.81-1.09 2.86-1.2.51-.05 1.02 0 1.51.11.76.16 1.48.62 1.68 1.41.14.54.02 1.11-.19 1.62-.83 2.03-3.76 4.59-6.07 4.99-.09.61-.14 1.24-.14 1.86 0 .35 0 1.16.21 1.85.3.99.8.99 1.01.99.11 0 .21-.01.32-.03h.04c1.8-.33 4.01-2.96 4.75-4.02.05-.07.12-.14.19-.19.08-.05.16-.08.25-.1.09-.02.18-.01.27 0 .09.02.17.06.25.11.07.05.14.12.19.19.05.08.08.16.1.25.02.09.01.18 0 .27-.02.09-.06.17-.11.24h.02Zm-78.13-1.01c1.66-.58 3.82-2.44 4.46-4.01.13-.33.24-.76.01-.98a.596.596 0 0 0-.46-.18c-.19 0-.37.05-.54.13-1.19.5-2.72 2.38-3.47 5.05Zm11.09-3.19c1.23-1.4 2.32-2.92 3.31-4.5.93-1.49 1.79-3.04 2.46-4.66.26-.63.49-1.27.65-1.93.11-.46.21-.98.12-1.46-.06-.28-.26-.51-.57-.47-.58.09-1.1.7-1.44 1.13-.45.55-.82 1.16-1.16 1.78-.88 1.59-1.55 3.3-2.12 5.02-.28.85-.52 1.71-.74 2.57-.1.42-.2.84-.29 1.27-.04.21-.09.43-.12.64-.02.13-.02.51-.1.6Zm27.95 3.03a4.32 4.32 0 0 1-2.88-.78c-.42-.3-.78-.68-1.04-1.13-1.08 1.93-1.8 4.99-1.31 6.56.18.59.45.67.62.68h.07c1.45 0 3.33-2.45 4.55-5.33Zm1.22-5.22c0-2.79-1.48-2.79-1.96-2.79-1.13 0-1.88 1.09-2.21 2.1-.13.39-.2.8-.22 1.21 0 0 .27.09.29.1.08.03.15.07.22.12.09.07.15.15.2.25.05.1.07.2.06.31 0 .11-.03.21-.09.31a.83.83 0 0 1-.22.24c-.1.07-.2.14-.28.23.17.5.47.95.91 1.26.75.53 1.64.67 2.63.42.42-1.29.67-2.59.67-3.74Zm30.85 3.47c1.66-.58 3.82-2.44 4.46-4.01.13-.33.24-.76.01-.98a.596.596 0 0 0-.46-.18c-.19 0-.37.05-.54.13-1.19.5-2.72 2.38-3.47 5.05Z"></path></svg>