<svg xmlns="http://www.w3.org/2000/svg" viewBox="0 0 60 60"><path d="M30 0c16.57 0 30 13.43 30 30S46.57 60 30 60 0 46.57 0 30 13.43 0 30 0Z"/><path fill="#fff" class="ct-play-indicator" fill-rule="evenodd" d="M39.95 28.19c.32.18.58.45.77.76.18.32.28.68.28 1.04s-.1.73-.28 1.04c-.18.32-.45.58-.77.76l-13.8 7.91c-.32.18-.68.28-1.05.28s-.73-.1-1.05-.28c-.32-.18-.59-.44-.77-.76-.18-.32-.28-.68-.28-1.04V22.07c0-.37.1-.73.28-1.04.18-.32.45-.58.77-.76.32-.18.68-.28 1.05-.28s.73.1 1.05.28l13.8 7.91Z"/></svg>